<?xml version="1.0" encoding="UTF-8"?><svg id="Layer_2" xmlns="http://www.w3.org/2000/svg" viewBox="0 0 1051.43 453.27"><defs><style>.cls-1{stroke-width:0px;}.cls-1,.cls-2{fill:#1e10c7;}.cls-3{letter-spacing:-.01em;}.cls-4{letter-spacing:-.03em;}.cls-2{font-family:Neutraface2Text-Bold, 'Neutraface 2 Text';font-size:140.89px;font-weight:700;}.cls-5{letter-spacing:-.01em;}</style></defs><g id="Layer_1-2"><text class="cls-2" transform="translate(482.38 413.4)"><tspan class="cls-4" x="0" y="0">S</tspan><tspan class="cls-3" x="71.43" y="0">TUDI</tspan><tspan class="cls-5" x="382.79" y="0">O</tspan><tspan class="cls-3" x="493.39" y="0">S</tspan></text><path class="cls-1" d="M495.55,147.98h43.05l-.96,21.05c9.57-16.58,22.32-23.92,38.59-23.92,17.54,0,29.98,7.33,38.27,23.28,11.16-14.03,26.15-23.28,46.24-23.28,34.12,0,53.89,22.64,53.89,59.95v78.77h-42.73v-74.94c0-15.94-5.1-24.55-21.37-24.55s-23.92,8.29-23.92,26.79v72.71h-42.73v-74.94c0-15.94-4.78-24.55-21.05-24.55s-24.24,8.29-24.24,26.79v72.71h-43.05v-135.85Z"/><path class="cls-1" d="M728.66,147.98h47.51l19.13,40.5c5.74,12.76,10.52,32.85,11.16,35.72.32-1.91,4.78-22.64,10.52-35.72l18.5-40.5h43.69l-72.71,138.72h-4.15l-73.66-138.72Z"/><path class="cls-1" d="M1032.24,147.98h-47.83l-44.65,52.3c1.28-8.61,2.23-19.13,2.23-29.34v-24.06h-43.05v136.95h43.05v-39.22l11.48-12.12,33.8,51.34h50.07l-53.25-80.36,48.15-55.49Z"/><polygon class="cls-1" points="314.64 96.22 314.64 41.37 273.26 0 0 0 0 96.22 241.63 96.22 87.83 259.65 155.87 327.68 314.64 159.29 314.64 411.82 410.86 411.82 410.86 137.59 369.48 96.22 314.64 96.22"/></g></svg>