<?xml version="1.0" encoding="UTF-8"?><svg id="Layer_2" xmlns="http://www.w3.org/2000/svg" viewBox="0 0 1059.91 461.19"><defs><style>.cls-1{letter-spacing:0em;}.cls-2{letter-spacing:-.01em;}.cls-3{letter-spacing:-.03em;}.cls-4{stroke-width:0px;}.cls-4,.cls-5{fill:#ebebeb;}.cls-5{font-family:Neutraface2Text-Bold, 'Neutraface 2 Text';font-size:141.82px;font-weight:700;}.cls-6{letter-spacing:-.01em;}.cls-7{fill:none;stroke:#ebebeb;stroke-miterlimit:10;stroke-width:10.38px;}</style></defs><g id="Layer_1-2"><text class="cls-5" transform="translate(487.12 421.05)"><tspan class="cls-3" x="0" y="0">S</tspan><tspan class="cls-1" x="71.9" y="0">TUDI</tspan><tspan class="cls-6" x="385.32" y="0">O</tspan><tspan class="cls-2" x="496.64" y="0">S</tspan></text><path class="cls-4" d="M500.37,153.89h43.33l-.96,21.19c9.63-16.69,22.47-24.07,38.84-24.07,17.65,0,30.17,7.38,38.52,23.43,11.23-14.12,26.32-23.43,46.54-23.43,34.34,0,54.25,22.79,54.25,60.34v79.28h-43.01v-75.43c0-16.05-5.14-24.72-21.51-24.72s-24.07,8.35-24.07,26.96v73.18h-43.01v-75.43c0-16.05-4.81-24.72-21.19-24.72s-24.39,8.35-24.39,26.96v73.18h-43.33v-136.74Z"/><path class="cls-4" d="M735.02,153.89h47.83l19.26,40.77c5.78,12.84,10.59,33.06,11.23,35.95.32-1.93,4.81-22.79,10.59-35.95l18.62-40.77h43.98l-73.18,139.63h-4.17l-74.15-139.63Z"/><path class="cls-4" d="M1040.59,153.89h-48.15l-44.94,52.64c1.28-8.67,2.25-19.26,2.25-29.53v-24.22h-43.33v137.85h43.33v-39.48l11.56-12.2,34.02,51.68h50.39l-53.6-80.89,48.47-55.85Z"/><polygon class="cls-7" points="319.83 101.41 319.83 46.57 278.45 5.19 5.19 5.19 5.19 101.41 246.83 101.41 93.02 264.84 161.06 332.88 319.83 164.48 319.83 417.01 416.05 417.01 416.05 142.79 374.67 101.41 319.83 101.41"/></g></svg>