<?xml version="1.0" encoding="UTF-8"?><svg id="Layer_2" xmlns="http://www.w3.org/2000/svg" viewBox="0 0 428.58 699.28"><defs><style>.cls-1{stroke-width:0px;}.cls-1,.cls-2{fill:#1e10c7;}.cls-2{font-family:Neutraface2Text-Bold, 'Neutraface 2 Text';font-size:106.02px;font-weight:700;}.cls-3{letter-spacing:-.03em;}.cls-4{letter-spacing:-.01em;}.cls-5{letter-spacing:0em;}</style></defs><g id="Layer_1-2"><path class="cls-1" d="M3.54,462.94h33.04l-.73,16.15c7.34-12.73,17.13-18.36,29.61-18.36,13.46,0,23.01,5.63,29.37,17.87,8.57-10.77,20.07-17.87,35.49-17.87,26.19,0,41.36,17.38,41.36,46.01v60.45h-32.8v-57.52c0-12.24-3.92-18.85-16.4-18.85s-18.36,6.36-18.36,20.56v55.8h-32.8v-57.52c0-12.24-3.67-18.85-16.15-18.85s-18.6,6.36-18.6,20.56v55.8H3.54v-104.26Z"/><path class="cls-1" d="M182.46,462.94h36.47l14.69,31.08c4.41,9.79,8.08,25.21,8.57,27.41.24-1.47,3.67-17.38,8.08-27.41l14.2-31.08h33.53l-55.8,106.47h-3.18l-56.54-106.47Z"/><text class="cls-2" transform="translate(.37 669.28)"><tspan class="cls-3" x="0" y="0">S</tspan><tspan class="cls-5" x="53.75" y="0">TUDI</tspan><tspan class="cls-4" x="288.05" y="0">O</tspan><tspan class="cls-5" x="371.27" y="0">S</tspan></text><path class="cls-1" d="M415.46,462.94h-36.71l-34.27,40.14c.98-6.61,1.71-14.69,1.71-22.52v-18.47h-33.04v105.11h33.04v-30.1l8.81-9.3,25.94,39.4h38.43l-40.87-61.68,36.96-42.59Z"/><polygon class="cls-1" points="314.64 96.22 314.64 41.37 273.26 0 0 0 0 96.22 241.63 96.22 87.83 259.65 155.87 327.68 314.64 159.29 314.64 411.82 410.86 411.82 410.86 137.59 369.48 96.22 314.64 96.22"/></g></svg>