<?xml version="1.0" encoding="UTF-8"?><svg id="Layer_2" xmlns="http://www.w3.org/2000/svg" viewBox="0 0 428.58 699.28"><defs><style>.cls-1{stroke-width:0px;}.cls-1,.cls-2{fill:#1a1a1a;}.cls-2{font-family:Neutraface2Text-Bold, 'Neutraface 2 Text';font-size:106.02px;font-weight:700;}.cls-3{letter-spacing:-.03em;}.cls-4{letter-spacing:-.01em;}.cls-5{letter-spacing:0em;}</style></defs><g id="Layer_1-2"><path class="cls-1" d="M3.54,463.92h32.74l-.73,16c7.28-12.61,16.97-18.19,29.34-18.19,13.34,0,22.8,5.58,29.1,17.7,8.49-10.67,19.89-17.7,35.16-17.7,25.95,0,40.98,17.22,40.98,45.59v59.9h-32.5v-56.99c0-12.12-3.88-18.67-16.25-18.67s-18.19,6.31-18.19,20.37v55.29h-32.49v-56.99c0-12.12-3.64-18.67-16.01-18.67s-18.43,6.31-18.43,20.37v55.29H3.54v-103.3Z"/><path class="cls-1" d="M180.81,463.92h36.13l14.55,30.8c4.37,9.7,8,24.98,8.49,27.16.24-1.46,3.64-17.22,8-27.16l14.06-30.8h33.22l-55.29,105.49h-3.15l-56.02-105.49Z"/><text class="cls-2" transform="translate(.37 669.28)"><tspan class="cls-3" x="0" y="0">S</tspan><tspan class="cls-5" x="53.75" y="0">TUDI</tspan><tspan class="cls-4" x="288.05" y="0">O</tspan><tspan class="cls-5" x="371.27" y="0">S</tspan></text><path class="cls-1" d="M411.67,463.92h-36.38l-33.95,39.77c.97-6.55,1.7-14.55,1.7-22.31v-18.3h-32.74v104.15h32.74v-29.83l8.73-9.21,25.7,39.04h38.07l-40.5-61.11,36.62-42.19Z"/><polygon class="cls-1" points="314.64 96.22 314.64 41.37 273.26 0 0 0 0 96.22 241.63 96.22 87.83 259.65 155.87 327.68 314.64 159.29 314.64 411.82 410.86 411.82 410.86 137.59 369.48 96.22 314.64 96.22"/></g></svg>